<svg width="110" height="22" viewBox="0 0 110 22" fill="none" xmlns="http://www.w3.org/2000/svg">
<path d="M6.9685 21.6609H2.82359V10.9836H0V7.50725H2.82348V5.03359C2.82348 2.1023 4.07231 0 8.206 0C9.08028 0 10.4529 0.182097 10.4529 0.182097V3.41006H9.0112C7.54226 3.41006 6.96872 3.87178 6.96872 5.14828V7.50725H10.3979L10.0925 10.9836H6.96861L6.9685 21.6609ZM16.4791 7.22944C16.4187 7.22944 16.3566 7.23171 16.2951 7.23331C12.4517 7.23331 10.6932 10.2207 10.6932 14.4615C10.6932 19.8037 12.9742 21.9418 16.3251 21.9418C18.2423 21.9418 19.5019 21.1079 20.2675 19.5518V21.6624H24.2099V7.50872H20.2675V9.68537C19.6424 8.28497 18.3476 7.24604 16.4791 7.22944ZM17.4815 10.5739C19.0958 10.5739 20.0647 11.7374 20.0647 13.7165L20.0684 15.7379C20.0684 17.0718 19.2682 18.6323 17.4815 18.6323C14.7348 18.6323 14.8082 15.5676 14.8082 14.5469C14.8082 11.1133 16.2716 10.5739 17.4815 10.5739ZM25.802 14.5863C25.802 12.8664 25.7224 7.23865 32.8178 7.23865C35.6661 7.23865 36.8554 8.17448 36.8554 8.17448L35.8995 11.2382C35.8995 11.2382 34.7117 10.5623 33.164 10.5623C31.1817 10.5623 29.9168 11.7498 29.9168 13.8392L29.919 15.3373C29.919 17.3449 31.1395 18.6851 33.1681 18.6851C34.5781 18.6851 35.8776 18.0028 35.8776 18.0028L36.8311 21.0026C36.8311 21.0026 35.7436 21.9443 32.8377 21.9443C26.0818 21.9443 25.8022 16.8951 25.8022 14.5863H25.802ZM59.9711 7.23331C63.8146 7.23331 65.6008 10.2207 65.6008 14.4615C65.6008 19.8037 63.3197 21.9418 59.9688 21.9418C58.0516 21.9418 56.6344 21.108 55.8688 19.5518V21.6624L51.976 21.6608V0.43035L56.1091 0.0578573V9.49361C56.7057 7.8428 58.6661 7.23331 59.9712 7.23331H59.9711ZM58.8124 10.5739C57.1981 10.5739 56.1091 11.7374 56.1091 13.7165L56.1053 15.7379C56.1029 17.0718 56.8594 18.6323 58.8124 18.6323C61.5591 18.6323 61.4857 15.5676 61.4857 14.5469C61.4857 11.1133 60.0224 10.5739 58.8124 10.5739ZM44.0267 7.24501C39.6674 7.24501 37.366 9.70105 37.366 14.0657V14.8766C37.366 20.5415 40.5979 22 44.451 22C48.1962 22 49.8914 20.9175 49.8914 20.9175L49.118 18.0349C49.118 18.0349 47.1239 18.9116 44.9466 18.9116C42.6894 18.9116 41.7186 18.3171 41.4698 16.0756H50.2218V13.763C50.2218 9.02847 47.6389 7.2449 44.0266 7.2449L44.0267 7.24501ZM44.1318 10.1315C45.6408 10.1315 46.6185 11.0877 46.5649 13.3053H41.4774C41.5656 10.9713 42.62 10.1316 44.1318 10.1316V10.1315ZM73.8421 7.22558C69.3654 7.22558 67.0087 9.83245 67.0087 14.5041C67.0087 20.9139 71.0712 21.9457 73.8496 21.9457C77.917 21.9457 80.623 19.6829 80.623 14.5623C80.623 9.23274 77.5804 7.22558 73.8421 7.22558ZM73.7858 10.5855C75.7543 10.5855 76.5343 12.1079 76.5343 13.8408V15.3306C76.5343 17.4298 75.4428 18.644 73.7783 18.644C72.2216 18.644 71.1275 17.5083 71.1275 15.3306V13.8408C71.1275 11.5183 72.4294 10.5855 73.7858 10.5855ZM88.8569 7.22558C84.3802 7.22558 82.0235 9.83245 82.0235 14.5041C82.0235 20.9139 86.086 21.9457 88.8644 21.9457C92.9316 21.9457 95.6377 19.6829 95.6377 14.5623C95.6377 9.23274 92.595 7.22558 88.8569 7.22558ZM88.8006 10.5855C90.769 10.5855 91.5489 12.1079 91.5489 13.8408V15.3306C91.5489 17.4298 90.4575 18.644 88.7931 18.644C87.2364 18.644 86.1423 17.5083 86.1423 15.3306V13.8408C86.1423 11.5183 87.4442 10.5855 88.8006 10.5855ZM97.1996 21.6609V0.43035L101.345 0.0578573V14.2879L105.457 7.50725H109.835L105.545 14.53L110 21.6609H105.61L101.345 14.7369V21.6609H97.1996Z" fill="black"/>
</svg>
