<svg width="166" height="25" viewBox="0 0 166 25" fill="none" xmlns="http://www.w3.org/2000/svg">
<path d="M11.912 19.5V1.98H16.376V19.5H11.912ZM0.776 19.5V1.98H5.24V19.5H0.776ZM4.472 12.612V8.724H12.68V12.612H4.472ZM27.7484 19.5V15.612H27.0284V11.46C27.0284 10.852 26.8844 10.404 26.5964 10.116C26.3244 9.812 25.8684 9.66 25.2284 9.66C24.9244 9.66 24.4764 9.668 23.8844 9.684C23.2924 9.7 22.6684 9.724 22.0124 9.756C21.3564 9.788 20.7564 9.82 20.2124 9.852V6.204C20.5964 6.172 21.0524 6.14 21.5804 6.108C22.1084 6.076 22.6524 6.052 23.2124 6.036C23.7884 6.02 24.3164 6.012 24.7964 6.012C26.1564 6.012 27.3084 6.212 28.2524 6.612C29.2124 7.012 29.9404 7.612 30.4364 8.412C30.9484 9.212 31.2044 10.228 31.2044 11.46V19.5H27.7484ZM23.5484 19.836C22.6204 19.836 21.7964 19.668 21.0764 19.332C20.3564 18.996 19.7884 18.516 19.3724 17.892C18.9724 17.252 18.7724 16.492 18.7724 15.612C18.7724 14.62 19.0364 13.82 19.5644 13.212C20.0924 12.588 20.8204 12.132 21.7484 11.844C22.6764 11.556 23.7404 11.412 24.9404 11.412H27.5084V13.668H24.9404C24.3484 13.668 23.8924 13.82 23.5724 14.124C23.2524 14.412 23.0924 14.804 23.0924 15.3C23.0924 15.78 23.2524 16.172 23.5724 16.476C23.8924 16.764 24.3484 16.908 24.9404 16.908C25.3244 16.908 25.6604 16.844 25.9484 16.716C26.2524 16.572 26.5004 16.332 26.6924 15.996C26.8844 15.66 26.9964 15.196 27.0284 14.604L28.0364 15.564C27.9564 16.476 27.7324 17.252 27.3644 17.892C27.0124 18.516 26.5164 18.996 25.8764 19.332C25.2524 19.668 24.4764 19.836 23.5484 19.836ZM34.1231 19.5V6.252H37.5791V12.012H37.5311C37.5311 10.156 37.9151 8.7 38.6831 7.644C39.4671 6.588 40.5871 6.06 42.0431 6.06H42.5711V9.804H41.5631C40.5871 9.804 39.8271 10.068 39.2831 10.596C38.7551 11.124 38.4911 11.884 38.4911 12.876V19.5H34.1231ZM44.4869 19.5V1.98H48.8549V19.5H44.4869ZM42.9989 5.148V1.98H48.8549V5.148H42.9989ZM58.2922 19.98C57.1722 19.98 56.1802 19.788 55.3162 19.404C54.4522 19.02 53.7242 18.5 53.1322 17.844C52.5402 17.188 52.0842 16.452 51.7642 15.636C51.4602 14.82 51.3082 13.98 51.3082 13.116V12.636C51.3082 11.74 51.4602 10.884 51.7642 10.068C52.0842 9.236 52.5322 8.5 53.1082 7.86C53.7002 7.22 54.4202 6.716 55.2682 6.348C56.1162 5.964 57.0762 5.772 58.1482 5.772C59.5722 5.772 60.7802 6.092 61.7722 6.732C62.7642 7.372 63.5242 8.22 64.0522 9.276C64.5802 10.316 64.8442 11.452 64.8442 12.684V14.076H53.1322V11.724H62.3242L60.8122 12.78C60.8122 12.028 60.7082 11.396 60.5002 10.884C60.3082 10.356 60.0122 9.956 59.6122 9.684C59.2282 9.412 58.7402 9.276 58.1482 9.276C57.5722 9.276 57.0682 9.412 56.6362 9.684C56.2202 9.94 55.9002 10.34 55.6762 10.884C55.4522 11.412 55.3402 12.084 55.3402 12.9C55.3402 13.636 55.4442 14.276 55.6522 14.82C55.8602 15.348 56.1802 15.756 56.6122 16.044C57.0442 16.332 57.6042 16.476 58.2922 16.476C58.9002 16.476 59.3962 16.372 59.7802 16.164C60.1802 15.956 60.4602 15.676 60.6202 15.324H64.6042C64.4122 16.22 64.0282 17.02 63.4522 17.724C62.8922 18.428 62.1722 18.98 61.2922 19.38C60.4282 19.78 59.4282 19.98 58.2922 19.98ZM67.1019 24.78V21.132H70.1499C70.5179 21.132 70.8299 21.084 71.0859 20.988C71.3419 20.892 71.5499 20.732 71.7099 20.508C71.8699 20.3 71.9899 20.004 72.0699 19.62L75.0459 6.252H79.1739L75.6939 20.46C75.4379 21.548 75.0779 22.404 74.6139 23.028C74.1659 23.668 73.5419 24.116 72.7419 24.372C71.9579 24.644 70.9339 24.78 69.6699 24.78H67.1019ZM71.3019 19.212V15.852H74.0859V19.212H71.3019ZM69.2859 19.212L65.4219 6.252H69.7899L73.4139 19.212H69.2859ZM98.0199 24.78C96.8679 24.78 95.8679 24.652 95.0199 24.396C94.1719 24.14 93.5079 23.668 93.0279 22.98C92.5639 22.292 92.3319 21.292 92.3319 19.98V17.1H96.5079V20.076C96.5079 20.524 96.6279 20.86 96.8679 21.084C97.1239 21.308 97.4759 21.42 97.9239 21.42H100.42V24.78H98.0199ZM94.5399 19.98C92.9399 19.98 91.5479 19.708 90.3639 19.164C89.1799 18.604 88.1959 17.876 87.4119 16.98C86.6279 16.068 86.0439 15.084 85.6599 14.028C85.2759 12.972 85.0839 11.948 85.0839 10.956V10.428C85.0839 9.324 85.2839 8.244 85.6839 7.188C86.0839 6.116 86.6839 5.148 87.4839 4.284C88.2839 3.42 89.2679 2.732 90.4359 2.22C91.6199 1.708 92.9879 1.452 94.5399 1.452C96.0759 1.452 97.4279 1.708 98.5959 2.22C99.7799 2.732 100.772 3.42 101.572 4.284C102.372 5.148 102.972 6.116 103.372 7.188C103.788 8.244 103.996 9.324 103.996 10.428V10.956C103.996 11.948 103.796 12.972 103.396 14.028C103.012 15.084 102.428 16.068 101.644 16.98C100.86 17.876 99.8759 18.604 98.6919 19.164C97.5079 19.708 96.1239 19.98 94.5399 19.98ZM94.5399 15.804C95.3079 15.804 95.9959 15.676 96.6039 15.42C97.2119 15.164 97.7319 14.804 98.1639 14.34C98.5959 13.876 98.9239 13.34 99.1479 12.732C99.3719 12.108 99.4839 11.436 99.4839 10.716C99.4839 9.948 99.3639 9.252 99.1239 8.628C98.8999 8.004 98.5719 7.468 98.1399 7.02C97.7079 6.572 97.1879 6.228 96.5799 5.988C95.9719 5.748 95.2919 5.628 94.5399 5.628C93.7719 5.628 93.0839 5.748 92.4759 5.988C91.8679 6.228 91.3479 6.572 90.9159 7.02C90.4839 7.468 90.1559 8.004 89.9319 8.628C89.7079 9.252 89.5959 9.948 89.5959 10.716C89.5959 11.436 89.7079 12.108 89.9319 12.732C90.1559 13.34 90.4839 13.876 90.9159 14.34C91.3479 14.804 91.8679 15.164 92.4759 15.42C93.0839 15.676 93.7719 15.804 94.5399 15.804ZM110.938 19.932C109.434 19.932 108.266 19.444 107.434 18.468C106.618 17.476 106.21 15.964 106.21 13.932V6.252H110.578V14.052C110.578 14.644 110.754 15.124 111.106 15.492C111.458 15.86 111.93 16.044 112.522 16.044C113.114 16.044 113.594 15.86 113.962 15.492C114.33 15.124 114.514 14.628 114.514 14.004V6.252H118.882V19.5H115.426V13.932H115.666C115.666 15.292 115.49 16.42 115.138 17.316C114.802 18.196 114.298 18.852 113.626 19.284C112.954 19.716 112.122 19.932 111.13 19.932H110.938ZM122.731 19.5V6.252H127.099V19.5H122.731ZM121.051 9.42V6.252H127.099V9.42H121.051ZM124.531 5.196C123.731 5.196 123.139 4.996 122.755 4.596C122.387 4.18 122.203 3.652 122.203 3.012C122.203 2.372 122.387 1.852 122.755 1.452C123.139 1.036 123.723 0.827999 124.507 0.827999C125.307 0.827999 125.891 1.036 126.259 1.452C126.627 1.852 126.811 2.372 126.811 3.012C126.811 3.652 126.627 4.18 126.259 4.596C125.891 4.996 125.315 5.196 124.531 5.196ZM130.311 19.5V6.252H133.767V11.94H133.575C133.575 10.564 133.751 9.428 134.103 8.532C134.455 7.62 134.975 6.94 135.663 6.492C136.367 6.044 137.215 5.82 138.207 5.82H138.399C139.903 5.82 141.063 6.324 141.879 7.332C142.711 8.324 143.127 9.852 143.127 11.916V19.5H138.759V11.796C138.759 11.188 138.575 10.692 138.207 10.308C137.855 9.908 137.367 9.708 136.743 9.708C136.119 9.708 135.615 9.908 135.231 10.308C134.863 10.692 134.679 11.204 134.679 11.844V19.5H130.311ZM146.061 19.5V6.252H149.517V11.94H149.325C149.325 10.564 149.501 9.428 149.853 8.532C150.205 7.62 150.725 6.94 151.413 6.492C152.117 6.044 152.965 5.82 153.957 5.82H154.149C155.653 5.82 156.813 6.324 157.629 7.332C158.461 8.324 158.877 9.852 158.877 11.916V19.5H154.509V11.796C154.509 11.188 154.325 10.692 153.957 10.308C153.605 9.908 153.117 9.708 152.493 9.708C151.869 9.708 151.365 9.908 150.981 10.308C150.613 10.692 150.429 11.204 150.429 11.844V19.5H146.061Z" fill="#212126"/>
<path d="M161.187 19.5V14.748H165.891V19.5H161.187Z" fill="#EE2A7F"/>
</svg>
