<svg width="114" height="28" viewBox="0 0 114 28" fill="none" xmlns="http://www.w3.org/2000/svg">
<g clip-path="url(#clip0_51_30)">
<path d="M12.2495 0.0301987C10.774 0.199807 8.56076 0.904334 7.30151 1.60886C3.91809 3.47455 1.62855 6.38398 0.483784 10.2589C0.25483 11.0156 -0.0122822 13.077 0.000437431 14.0424C0.000437431 14.8905 0.25483 16.9649 0.407466 17.4607C0.483784 17.6955 0.649139 18.2566 0.789055 18.6871C1.01801 19.4177 2.12462 21.714 2.31541 21.8705C2.35357 21.9097 2.55708 22.1706 2.74788 22.4707C3.21851 23.1882 4.45231 24.4668 5.38085 25.1975C6.09315 25.7585 8.10285 26.9457 8.35724 26.9588C8.42084 26.9588 8.43356 26.463 8.3954 25.8106C8.30636 24.3625 8.57347 22.3924 9.14586 20.3832C9.24762 20.044 9.32393 19.6004 9.32393 19.4047C9.32393 19.209 9.37481 19.0002 9.43841 18.935C9.50201 18.8567 9.61649 18.4784 9.68008 18.087C9.7564 17.6955 9.8836 17.0954 9.97263 16.7562C10.0998 16.2474 10.0871 16.0517 9.90904 15.5037C9.65464 14.6687 9.64192 13.3118 9.89632 12.6595C10.4941 11.1069 11.1556 10.5198 12.2749 10.5198C13.6232 10.5198 14.2719 11.5636 14.0175 13.3118C13.903 14.1077 13.585 15.3602 13.3815 15.7516C13.3306 15.869 13.2416 16.1952 13.2034 16.4692C13.1525 16.7562 13.0508 17.1606 12.9872 17.3824C12.8091 17.8913 13.1525 18.8828 13.6105 19.2612C14.0429 19.6134 14.946 19.7178 15.7728 19.5221C16.3579 19.3916 16.5996 19.2351 17.2101 18.6349C17.9351 17.9043 18.4821 17.0563 18.4821 16.6518C18.4821 16.5344 18.5457 16.3778 18.622 16.2995C18.9781 15.9342 19.1689 13.09 18.9018 11.8897C18.6093 10.572 17.7062 9.28037 16.536 8.52366C15.3658 7.7539 12.949 7.5321 11.4608 8.05397C10.4178 8.41928 9.48929 9.03248 8.89147 9.75006C8.35724 10.3893 7.79758 11.4331 7.79758 11.7984C7.79758 11.9289 7.73398 12.0985 7.65766 12.1768C7.58134 12.255 7.49231 12.7508 7.45415 13.2857C7.39055 14.0816 7.44143 14.4469 7.67038 15.2297C7.82302 15.7646 8.10285 16.3909 8.2682 16.6257C8.61163 17.0954 8.61163 17.2781 8.29364 18.5305C8.20461 18.8698 8.05197 19.1829 7.96293 19.222C7.1616 19.5351 5.53348 17.5651 4.98654 15.6081C4.78302 14.8644 4.7703 12.2159 4.97382 11.4331C5.06285 11.1069 5.21549 10.6633 5.31725 10.4285C5.419 10.2067 5.50804 9.9849 5.50804 9.93271C5.50804 9.88052 5.76243 9.43693 6.08043 8.9542C7.73398 6.39703 10.4178 5.04017 13.814 5.04017C14.5899 5.04017 15.3912 5.09235 15.6074 5.15759C17.3627 5.7186 17.8334 5.90125 18.5202 6.31875C19.8558 7.1407 20.8225 8.26272 21.7892 10.1415C21.8528 10.2589 21.9418 10.572 21.98 10.8329C22.0309 11.0939 22.1199 11.3418 22.1835 11.3809C22.2471 11.42 22.298 12.2681 22.298 13.2727C22.298 15.0862 22.1708 15.8168 21.6365 17.3041C21.0387 18.935 19.4996 20.7355 18.1005 21.44C17.2991 21.8314 15.7982 22.2619 15.2004 22.2619C14.3991 22.2619 12.8218 21.5835 12.3894 21.0355C12.1859 20.7876 11.9951 20.879 11.9951 21.2312C11.9951 21.3617 11.9442 21.5835 11.8679 21.714C11.8043 21.8314 11.6898 22.1967 11.6262 22.5229C11.2573 24.245 10.7358 25.641 9.93448 26.9457C9.6928 27.3502 9.89632 27.585 10.5577 27.6763C10.8884 27.7285 11.3336 27.8199 11.5372 27.8851C12.0459 28.0547 14.8061 28.0286 15.7346 27.859C16.5741 27.7024 17.9351 27.311 18.5457 27.0501C22.387 25.4323 25.2998 22.1445 26.559 17.9565C27.2332 15.7255 27.2713 13.1292 26.6608 10.5198C26.4573 9.67177 26.3937 9.47607 25.8467 8.17139C25.0581 6.26656 23.2774 4.03556 21.4712 2.66565C19.9194 1.49144 18.393 0.813006 16.0145 0.2259C15.353 0.069339 12.9999 -0.0611288 12.2495 0.0301987ZM46.1727 4.74009C45.6767 4.81837 44.888 5.65336 44.6845 6.3057C44.4683 7.02328 44.6845 7.79304 45.2951 8.39319C46.6434 9.73701 48.9838 8.47147 48.6912 6.54055C48.5131 5.31415 47.4193 4.53134 46.1727 4.74009ZM32.3083 5.50985C32.1938 5.64032 32.1938 21.3747 32.321 21.5574C32.3846 21.6618 32.9316 21.7009 34 21.6879L35.59 21.6748L35.6536 19.0263C35.7045 16.8736 35.7553 16.3517 35.908 16.2604C36.0097 16.1952 36.8747 16.1299 37.8286 16.1299C39.9147 16.1299 40.7923 15.9734 41.7463 15.4515C42.9928 14.76 43.7178 13.7685 44.1121 12.1898C44.3538 11.1982 44.3538 10.4807 44.0994 9.46303C43.8705 8.54975 43.7687 8.32796 43.2218 7.58429C42.5476 6.65797 41.8608 6.14914 40.7414 5.74469C40.1182 5.53594 39.5967 5.4968 36.226 5.45766C34.1272 5.43157 32.3592 5.45766 32.3083 5.50985ZM39.2914 8.7585C40.1436 9.03248 40.5634 9.42388 40.7542 10.1284C40.9958 11.0547 40.8178 11.9158 40.2835 12.4377C39.6984 12.9987 39.1769 13.1292 37.4725 13.1292C36.3532 13.1292 36.0097 13.09 35.8571 12.9204C35.6917 12.7639 35.6536 12.3855 35.6536 10.8982C35.6536 8.54975 35.6409 8.5628 37.4089 8.5628C38.1721 8.5628 38.9098 8.64108 39.2914 8.7585ZM61.6017 7.98874C61.6017 8.88897 61.5381 9.73701 61.4745 9.88052C61.3854 10.0501 61.2073 10.1284 60.9021 10.1284C60.6731 10.1284 60.4569 10.1806 60.4314 10.2589C60.4187 10.3241 60.4187 10.7808 60.4569 11.2635C60.5205 12.1246 60.5332 12.1376 60.9148 12.2289C61.131 12.2681 61.3727 12.3464 61.449 12.3986C61.5635 12.4638 61.6017 13.4945 61.6017 16.1038C61.6017 19.6134 61.6144 19.7439 61.8942 20.2658C62.4793 21.3747 63.3951 21.7661 65.2522 21.714L66.4987 21.6748L66.5369 20.4093L66.575 19.1307H66.257C65.7737 19.1307 65.0614 18.7393 64.9851 18.4262C64.9469 18.2696 64.9088 16.8866 64.9088 15.3341C64.9088 13.1944 64.9469 12.4768 65.0741 12.3725C65.1632 12.2942 65.5193 12.2159 65.8627 12.1898L66.4987 12.1507V10.1936L65.7991 10.1545C65.4175 10.1284 65.0614 10.0371 65.0105 9.9588C64.9596 9.86748 64.9088 9.01943 64.9088 8.06702V6.34484H61.6017V7.98874ZM108.881 6.42312C108.83 6.47531 108.792 7.29726 108.792 8.24967C108.792 10.1023 108.779 10.1284 108.079 10.1284C107.761 10.1284 107.761 10.1415 107.799 11.133C107.838 12.1246 107.85 12.1507 108.181 12.1898C108.359 12.2159 108.575 12.3072 108.639 12.3855C108.715 12.4768 108.792 14.0555 108.83 16.0647C108.868 17.9956 108.931 19.7569 108.982 19.9657C109.135 20.5397 109.924 21.2704 110.674 21.5183C111.514 21.8053 113.65 21.8314 113.867 21.5574C113.968 21.44 114.007 20.9703 113.981 20.2919L113.943 19.1959L113.498 19.1176C113.014 19.0394 112.467 18.7784 112.328 18.5566C112.277 18.4784 112.226 17.0563 112.226 15.3993C112.226 11.9941 112.15 12.2159 113.256 12.2159C113.981 12.2159 114.045 12.0854 113.981 10.8982L113.943 10.1936L113.116 10.1284L112.289 10.0632L112.226 8.23663L112.162 6.41008L110.56 6.37094C109.682 6.35789 108.931 6.38398 108.881 6.42312ZM55.3054 9.81529C54.6822 9.9849 53.9571 10.4154 53.4738 10.9243C52.8887 11.5505 52.7361 11.5114 52.6725 10.7155L52.6343 10.1936H49.4544V21.6748L51.0571 21.7009C52.6343 21.7401 52.6725 21.727 52.7488 21.44C52.7869 21.2834 52.8251 19.6265 52.8251 17.7477C52.8251 14.0294 52.8378 13.925 53.5883 13.1944C53.919 12.8682 54.0971 12.803 54.8094 12.7639L55.6361 12.7117L56.1322 13.2466C56.7173 13.8728 56.6537 13.2727 56.7046 18.6741C56.7173 20.1092 56.73 21.3747 56.7428 21.5052C56.7682 21.6879 56.9717 21.714 58.3963 21.6879L60.0117 21.6748V12.516L59.6428 11.7723C59.0068 10.4807 58.0274 9.86748 56.5265 9.7892C55.9923 9.77615 55.4453 9.77615 55.3054 9.81529ZM71.205 9.81529C69.8313 10.1936 69.1698 10.572 68.3176 11.4331C67.1729 12.6203 66.6514 14.0033 66.6514 15.869C66.6641 19.1437 68.6611 21.5704 71.612 21.8575C74.1305 22.1054 76.0766 21.3486 77.3231 19.6395C77.5012 19.3916 77.8828 18.5958 77.8828 18.4523C77.8828 18.4001 77.1451 18.3479 76.2547 18.3479H74.6266L74.245 18.7523C73.7998 19.222 73.1765 19.5221 72.6041 19.5221C72.0318 19.5221 71.1541 19.1046 70.7471 18.661C70.4418 18.3087 69.9966 17.2911 69.9966 16.9388C69.9966 16.8214 70.9251 16.7823 73.9143 16.7823C76.0639 16.7823 77.8828 16.7301 77.9718 16.6779C78.1626 16.5474 77.9846 14.473 77.7047 13.7163C77.1323 12.1376 76.0512 10.8068 74.9573 10.3372C74.6393 10.2067 74.2704 10.0371 74.1432 9.97185C73.8761 9.82834 71.612 9.71091 71.205 9.81529ZM73.6853 12.6725C74.1814 13.0248 74.6138 13.8598 74.5502 14.3295C74.5121 14.6296 74.4867 14.6296 72.337 14.6687C69.8567 14.7078 69.844 14.6948 70.2383 13.7554C70.5181 13.1031 71.0778 12.516 71.5993 12.3464C72.1971 12.1507 73.1638 12.3072 73.6853 12.6725ZM90.0301 9.81529C88.5546 10.2197 87.5243 10.8851 86.7229 11.9158C86.405 12.3333 86.1506 12.7247 86.1506 12.803C86.1506 12.8682 86.0615 13.1031 85.9471 13.3249C85.8326 13.5336 85.6672 14.186 85.5782 14.7731C85.133 17.5651 86.3541 20.1744 88.6436 21.3486L89.5213 21.8053H91.3656C93.2736 21.8053 93.4389 21.7661 94.6091 21.1269C95.4613 20.6572 96.8605 18.8306 96.6443 18.4653C96.5934 18.4001 95.8684 18.3479 95.0162 18.3479H93.4516L93.1336 18.7262C91.8617 20.2005 89.4831 19.4438 88.9743 17.3955C88.898 17.1215 88.898 16.8866 88.9616 16.8345C89.0252 16.7953 90.8441 16.7692 93.0192 16.7823C96.1228 16.7823 96.9623 16.7562 96.975 16.6257C97.0895 14.9949 96.3263 12.5812 95.3723 11.5375C94.8381 10.9504 93.9095 10.298 93.4516 10.1806C93.2481 10.1284 93.0192 10.0371 92.9301 9.97185C92.7521 9.82834 90.4244 9.71091 90.0301 9.81529ZM92.0143 12.3594C92.5867 12.5682 93.2481 13.2988 93.3499 13.8598C93.5025 14.7078 93.5152 14.7078 91.1494 14.6687C89.0252 14.6296 89.0125 14.6296 88.9743 14.3295C88.9234 13.9642 89.3686 13.0639 89.7502 12.7247C90.2972 12.255 91.2511 12.0985 92.0143 12.3594ZM101.096 9.81529C98.4886 10.4546 97.5474 11.407 97.5346 13.3901C97.5346 15.5298 98.5777 16.43 101.669 16.991C103.793 17.3694 104.403 17.7086 104.378 18.5305C104.365 19.1176 103.971 19.496 103.182 19.6656C102.19 19.8874 101.414 19.6395 100.791 18.9219L100.295 18.3479H98.7557C97.5092 18.3479 97.2166 18.387 97.2166 18.5305C97.2166 18.9089 97.7254 19.9005 98.1452 20.3962C98.5395 20.8268 98.8448 21.0355 100.04 21.6226C100.155 21.6879 100.778 21.7922 101.401 21.8705C102.559 22.014 104.569 21.8836 105.077 21.6226C105.192 21.5704 105.523 21.4008 105.802 21.2704C106.527 20.9181 107.214 20.1223 107.469 19.3655C107.749 18.5045 107.672 17.3041 107.278 16.4692C106.807 15.4906 105.561 14.7861 103.704 14.4469C101.312 14.0164 101.274 14.0033 100.893 13.625C100.435 13.1422 100.435 12.9726 100.893 12.4507C101.261 12.0332 101.287 12.0202 102.305 12.0202C103.322 12.0202 103.348 12.0332 103.716 12.4507C103.92 12.6856 104.085 12.9596 104.085 13.0639C104.085 13.2205 104.352 13.2596 105.675 13.2596C107.431 13.2596 107.38 13.2988 107.074 12.3725C106.515 10.7286 105.077 9.89357 102.686 9.80224C101.948 9.77615 101.236 9.77615 101.096 9.81529ZM84.179 10.0893C83.6194 10.285 82.8435 10.9373 82.6018 11.407C82.3601 11.8767 82.1439 11.681 82.0803 10.8982L82.0167 10.1936H78.8368L78.7986 15.6733C78.7859 18.6871 78.7986 21.2834 78.8368 21.453C78.9004 21.7401 78.9385 21.7401 80.4649 21.714C81.3425 21.7009 82.0548 21.6226 82.1057 21.5444C82.1566 21.4791 82.2075 20.0962 82.2075 18.4784C82.2075 15.9212 82.2329 15.4645 82.4492 14.8905C82.8943 13.7032 83.8483 12.9987 85.044 12.9987C85.3747 12.9987 85.5146 12.9335 85.5527 12.7639C85.6418 12.3855 85.6545 10.6242 85.5782 10.2328C85.5019 9.91966 85.4383 9.86748 85.0948 9.88052C84.8659 9.89357 84.4588 9.9849 84.179 10.0893ZM45.0025 10.285C44.9644 10.3763 44.9516 12.9465 44.9644 15.9995L45.0025 21.5444L46.5162 21.6096C47.432 21.6487 48.0934 21.6226 48.1952 21.5444C48.3351 21.44 48.3732 20.331 48.3732 15.8951C48.3859 12.8682 48.3478 10.3241 48.3096 10.2589C48.1824 10.0632 45.0661 10.0893 45.0025 10.285Z" fill="black"/>
</g>
<defs>
<clipPath id="clip0_51_30">
<rect width="114" height="28" fill="white"/>
</clipPath>
</defs>
</svg>
